<svg width="37" height="32" viewBox="0 0 37 32" fill="none" xmlns="http://www.w3.org/2000/svg">
<path fill-rule="evenodd" clip-rule="evenodd" d="M1.65909 6.4C1.65909 2.86538 4.63029 0 8.29545 0H11.6136C12.5299 0 13.2727 0.716345 13.2727 1.6C13.2727 2.48366 12.5299 3.2 11.6136 3.2H8.29545C6.46287 3.2 4.97727 4.63269 4.97727 6.4V9.6C4.97727 10.4837 4.23447 11.2 3.31818 11.2C2.40189 11.2 1.65909 10.4837 1.65909 9.6V6.4ZM1.65909 25.6C1.65909 29.1346 4.63029 32 8.29545 32H11.6136C12.5299 32 13.2727 31.2837 13.2727 30.4C13.2727 29.5163 12.5299 28.8 11.6136 28.8H8.29545C6.46287 28.8 4.97727 27.3673 4.97727 25.6V22.4C4.97727 21.5163 4.23447 20.8 3.31818 20.8C2.40189 20.8 1.65909 21.5163 1.65909 22.4V25.6ZM34.8409 6.4C34.8409 2.86538 31.8697 0 28.2045 0H24.8864C23.9701 0 23.2273 0.716344 23.2273 1.6C23.2273 2.48366 23.9701 3.2 24.8864 3.2H28.2045C30.0371 3.2 31.5227 4.63269 31.5227 6.4V9.6C31.5227 10.4837 32.2655 11.2 33.1818 11.2C34.0981 11.2 34.8409 10.4837 34.8409 9.6V6.4ZM28.2045 32C31.8697 32 34.8409 29.1346 34.8409 25.6V22.4C34.8409 21.5163 34.0981 20.8 33.1818 20.8C32.2655 20.8 31.5227 21.5163 31.5227 22.4V25.6C31.5227 27.3673 30.0371 28.8 28.2045 28.8H24.8864C23.9701 28.8 23.2273 29.5163 23.2273 30.4C23.2273 31.2837 23.9701 32 24.8864 32H28.2045ZM34.8409 17.6C35.7572 17.6 36.5 16.8837 36.5 16C36.5 15.1163 35.7572 14.4 34.8409 14.4L1.65909 14.4C0.742801 14.4 0 15.1163 0 16C0 16.8837 0.742801 17.6 1.65909 17.6L34.8409 17.6Z" fill="#86AB89"/>
</svg>
