<svg width="24" height="24" viewBox="0 0 24 24" fill="none" xmlns="http://www.w3.org/2000/svg">
<path d="M17.8134 16.3991L22.4106 20.9963C22.8011 21.3868 22.8011 22.02 22.4106 22.4105C22.0201 22.8011 21.3869 22.8011 20.9964 22.4105L16.3992 17.8133C14.8595 19.0449 12.9065 19.7814 10.7815 19.7814C5.81093 19.7814 1.78149 15.752 1.78149 10.7814C1.78149 5.81084 5.81093 1.7814 10.7815 1.7814C15.7521 1.7814 19.7815 5.81084 19.7815 10.7814C19.7815 12.9064 19.045 14.8594 17.8134 16.3991ZM10.7815 17.7814C14.6475 17.7814 17.7815 14.6474 17.7815 10.7814C17.7815 6.91541 14.6475 3.7814 10.7815 3.7814C6.9155 3.7814 3.78149 6.91541 3.78149 10.7814C3.78149 14.6474 6.9155 17.7814 10.7815 17.7814Z" fill="#4B5568"/>
</svg>
